<svg width="215" height="64" viewBox="0 0 215 64" fill="none" xmlns="http://www.w3.org/2000/svg">
<path fill-rule="evenodd" clip-rule="evenodd" d="M65.594 14.3488C65.594 6.42416 72.0182 0 79.9428 0H134.409C142.334 0 148.758 6.42416 148.758 14.3488C148.758 22.2733 142.334 28.6975 134.409 28.6975H113.114C111.29 28.6975 109.812 30.1761 109.812 32C109.812 33.8239 111.29 35.3024 113.114 35.3024H200.004C207.929 35.3024 214.353 41.7266 214.353 49.6512C214.353 57.5758 207.929 63.9999 200.004 63.9999H14.3488C6.42418 63.9999 0 57.5758 0 49.6512C0 41.7266 6.42416 35.3024 14.3488 35.3024H101.238C103.062 35.3024 104.541 33.8239 104.541 32C104.541 30.1761 103.062 28.6975 101.238 28.6975H79.9428C72.0182 28.6975 65.594 22.2733 65.594 14.3488ZM85.002 55.8473C83.9965 55.8473 83.2101 55.7059 82.6446 55.4196C82.0774 55.1351 81.6815 54.7092 81.4553 54.1384C81.2291 53.5694 81.1161 52.8661 81.1161 52.0249V47.266C81.1161 45.9 81.42 44.8928 82.0297 44.246C82.6376 43.5992 83.6289 43.2741 85.0038 43.2741H91.3955C92.3727 43.2741 93.1184 43.3271 93.6362 43.4349C94.1522 43.5409 94.412 43.6522 94.412 43.7653L93.9879 45.536C93.7475 45.4936 93.0354 45.4477 91.8532 45.3964C90.671 45.3469 88.9551 45.3222 86.7037 45.3222H85.6205C84.4877 45.3222 83.9223 45.8276 83.9223 46.8384V52.2812C83.9223 52.7654 84.046 53.1382 84.2934 53.4015C84.5408 53.6648 84.9843 53.7956 85.6205 53.7956H86.4917C88.842 53.7956 90.6657 53.7709 91.961 53.7214C93.2563 53.6719 94.0603 53.6189 94.3713 53.5606L95.2425 54.969C95.2425 55.0397 95.1259 55.1475 94.8927 55.2888C94.6594 55.432 94.23 55.5592 93.6079 55.6723C92.9841 55.7854 92.0864 55.8437 90.9113 55.8437H85.0073L85.002 55.8473ZM37.643 55.8472V45.0058L37.4309 43.2775H46.8392C47.7457 43.2775 48.4561 43.3995 48.9739 43.6398C49.4899 43.8819 49.8733 44.1982 50.1207 44.5887C50.3681 44.981 50.5272 45.3963 50.5979 45.8381C50.6685 46.2799 50.7039 46.6987 50.7039 47.0981V48.358C50.7039 48.685 50.6544 49.0525 50.5555 49.4572C50.4565 49.8619 50.2727 50.2542 50.0041 50.6306C49.7355 51.007 49.345 51.3215 48.836 51.5689C48.3271 51.8181 47.6609 51.9418 46.8392 51.9418H44.6727C43.7803 51.9418 42.9479 51.9206 42.1775 51.8782C41.4052 51.8358 40.8291 51.8004 40.4474 51.7721V55.8489H37.6448L37.643 55.8472ZM40.4457 49.8919H46.2224C46.8604 49.8919 47.2986 49.7346 47.539 49.4219C47.7793 49.1091 47.8994 48.7327 47.8994 48.2909V46.9461C47.8994 46.4902 47.7793 46.1067 47.539 45.7939C47.2986 45.4811 46.8657 45.3239 46.2436 45.3239H40.4457V49.8919ZM17.3811 55.8471C16.418 55.8471 15.7111 55.8047 15.257 55.7198C14.8046 55.635 14.5766 55.5343 14.5766 55.4212L15.4266 53.5639C15.7518 53.6205 16.5629 53.6735 17.8582 53.7247C19.1535 53.7742 20.9348 53.799 23.2002 53.799H23.6032C24.211 53.799 24.644 53.6894 24.8985 53.4685C25.1529 53.2476 25.2802 52.8748 25.2802 52.3481V51.9205C25.2802 51.4222 25.1777 51.067 24.9727 50.8531C24.7677 50.6393 24.31 50.5333 23.6032 50.5333H18.6764C17.2468 50.5333 16.2059 50.2665 15.5538 49.7328C14.9018 49.1991 14.5766 48.3279 14.5766 47.1174V46.7764C14.5766 46.1508 14.6933 45.5747 14.9265 45.0481C15.1598 44.5215 15.5591 44.0991 16.1264 43.7775C16.6919 43.4577 17.4712 43.2969 18.4626 43.2969H24.2393C25.2024 43.2969 25.98 43.3463 26.5755 43.4471C27.171 43.546 27.4679 43.6538 27.4679 43.7669L27.0438 45.5606C26.6762 45.5182 25.8404 45.4722 24.538 45.421C23.2356 45.3715 21.4861 45.3467 19.2913 45.3467L19.0581 45.3255C18.406 45.3255 17.9678 45.4581 17.7416 45.7196C17.5154 45.9829 17.3934 46.3134 17.3811 46.7127V47.075C17.3811 47.5451 17.5118 47.8967 17.7734 48.1318C18.0349 48.3668 18.4714 48.4834 19.0793 48.4834H23.794C24.7005 48.4834 25.4728 48.5753 26.109 48.7609C26.7469 48.9464 27.2346 49.2839 27.5739 49.7752C27.9132 50.2665 28.0828 50.9892 28.0828 51.9417V52.2828C28.0828 53.3501 27.8107 54.2107 27.2647 54.8646C26.7186 55.5184 25.775 55.8471 24.4302 55.8471H17.3811ZM63.2965 43.2969L57.0745 55.8471H60.174L61.5541 53.1363H69.1581L70.411 55.8471H73.682L67.4811 43.2969H63.2965ZM68.3735 51.0458H62.3228L65.2528 45.2195H65.4648L68.3735 51.0458ZM103.734 43.2969V55.8471H115.33C116.265 55.8471 116.924 55.8224 117.306 55.7729C117.687 55.7216 117.878 55.6686 117.878 55.6121L117.028 53.7972H106.537V50.4043H114.48V48.2908H106.537V45.345H116.943V43.2969H103.734ZM130.642 55.8472L130.621 45.3256H125.099V43.2775H138.989V45.3256H133.445V55.8472H130.642ZM147.483 43.2969V55.8471H150.286V43.2969H147.483ZM160.268 55.8474V45.006L160.056 43.2989H163.285L168.084 51.836L173.054 43.2989H175.92V55.8491H173.117V47.8882H172.884L172.055 49.7454L169.38 54.5697H166.81L164.135 49.7454L163.285 47.8882H163.073V55.8491H160.27L160.268 55.8474ZM185.69 43.2969V55.8471H197.286C198.221 55.8471 198.88 55.8223 199.262 55.7729C199.643 55.7216 199.834 55.6686 199.834 55.612L198.984 53.7972H188.493V50.4043H196.436V48.2908H188.493V45.345H198.899V43.2969H185.69ZM84.2094 10.9769V14.0117V14.0134L80.163 15.6473L84.2094 17.2893V20.3274L76.3153 17.2095H76.299V14.0965H76.3153L84.2094 10.9769ZM130.199 20.1661V17.1329L134.243 15.5007L130.199 13.8684V10.8336L138.082 13.9498H138.102V17.0661H138.082L130.199 20.1661ZM126.814 6.54442L122.178 22.3506H124.931L129.567 6.54442H126.814ZM96.9566 13.7593C97.0054 12.5229 96.5933 11.3175 95.8098 10.4036H95.8114C95.4237 9.97192 94.9529 9.63309 94.4316 9.40991C93.9103 9.18674 93.3516 9.08574 92.7896 9.11018C92.1869 9.08249 91.5858 9.18674 91.0221 9.4148C90.4585 9.64286 89.9437 9.99147 89.5121 10.4378V9.43924H86.759V20.492H89.5121V15.5968C89.5121 13.0572 90.3738 11.7882 92.0973 11.7882C92.3856 11.7752 92.6739 11.8322 92.9395 11.9544C93.2034 12.0766 93.4396 12.2623 93.6285 12.4952C94.0309 13.0279 94.2361 13.6974 94.2036 14.3784V20.492H96.9566V13.7593ZM100.46 4.84223V20.6484H103.213V4.84223H100.46ZM116.472 20.0686H118.767L122.629 8.99627H119.687L117.519 15.6393L115.286 8.99627H113.139L110.906 15.6181L108.737 8.99627H105.795L109.654 20.0686H111.948L114.221 13.5575L116.472 20.0686Z" fill="url(#paint0_linear_206_177)"/>
<defs>
<linearGradient id="paint0_linear_206_177" x1="49.6512" y1="-7.17438" x2="235.046" y2="105.566" gradientUnits="userSpaceOnUse">
<stop offset="0.251308" stop-color="#996DFF"/>
<stop offset="0.623787" stop-color="#FF876E"/>
<stop offset="1" stop-color="#FFD072"/>
</linearGradient>
</defs>
</svg>
